<?xml version="1.0" encoding="iso-8859-1"?>
<!-- Generator: Adobe Illustrator 19.0.0, SVG Export Plug-In . SVG Version: 6.00 Build 0)  -->
<svg version="1.1" id="Capa_1" xmlns="http://www.w3.org/2000/svg" xmlns:xlink="http://www.w3.org/1999/xlink" x="0px" y="0px"
	 viewBox="0 0 512 512" style="enable-background:new 0 0 512 512;" xml:space="preserve">
<path style="fill:#FF9037;" d="M256,512l-20-15l20-15c50.045,0,97.456-16.019,137.107-46.324l18.218,23.836
	C366.397,493.85,312.687,512,256,512z"/>
<path style="fill:#FFB037;" d="M256,512c-56.687,0-110.397-18.15-155.325-52.488l18.218-23.836C158.544,465.981,205.955,482,256,482
	V512z"/>
<path style="fill:#FF9037;" d="M431.879,300c-17.518,0-33.226-10.127-40.995-26.43C361.642,212.204,256,0,256,0l-30,209.822h30
	l66.009,167.272c1.241,3.145,1.871,6.478,1.871,9.905c0,11.239-6.742,21.175-16.917,25.22c-9.21,3.323-18.703,5.836-28.35,7.465
	l4.994,29.582c10.658-1.799,21.15-4.524,31.361-8.074c0.953-0.271,1.876-0.615,2.79-0.972c18.559-6.768,36.119-16.346,51.891-28.392
	l0.245-0.191C387.649,397.482,409.083,390,431.879,390H447v-90H431.879z"/>
<path style="fill:#FFB037;" d="M121.115,273.57C113.346,289.873,97.638,300,80.121,300H65v90h15.121
	c22.796,0,44.23,7.482,61.985,21.637l0.245,0.191c15.771,12.047,33.332,21.624,51.891,28.392c0.914,0.357,1.837,0.701,2.777,1.013
	c10.225,3.51,20.717,6.234,31.375,8.033l4.994-29.582c-9.647-1.629-19.141-4.141-28.35-7.465
	c-10.175-4.045-16.917-13.981-16.917-25.22c0-3.428,0.629-6.761,1.871-9.906L256,209.822V0C256,0,150.358,212.204,121.115,273.57z"
	/>
<g>
</g>
<g>
</g>
<g>
</g>
<g>
</g>
<g>
</g>
<g>
</g>
<g>
</g>
<g>
</g>
<g>
</g>
<g>
</g>
<g>
</g>
<g>
</g>
<g>
</g>
<g>
</g>
<g>
</g>
</svg>
